<svg version="1.0" xmlns="http://www.w3.org/2000/svg" width="1706.667" height="1626.667" viewBox="0 0 1280 1220"><path d="M1251.6 2.4c-7.2 3.1-11.5 6.4-42 32.4C1078.2 147.3 996.8 221.6 924 295.6 809.4 412.2 722.2 524.2 658.8 636.5c-22.2 39.2-36 66.9-57.8 116-22.6 51-31.1 72.9-59.5 153.8l-3.8 10.9-2.6-3.4c-33.6-43.2-79-84.5-131.6-119.5-29.9-19.9-50.5-31.8-90-51.9-44.6-22.7-81.8-39.2-159-70.4-24.7-10-59.4-24-77-31.2C41.2 626 36.1 624.2 27 623.1c-11.9-1.5-20.1 1.1-24.3 7.9-5.1 8.1-1.7 27.3 7.5 42.6 10.5 17.6 21.1 27.2 41.8 37.9 118.1 61.1 236 152.9 344 268 63.9 68.2 117.3 135.3 168.7 212.4 10.2 15.2 18.5 26.7 18.7 26 .3-.8 2.4-9.7 4.7-19.9 45.1-202.2 140.7-411.4 290-634.5 89-133 189.9-264.1 371.3-482 12.2-14.7 22.9-28.5 24.5-31.8 6.6-12.8 7.7-28.4 2.9-38.9-4.7-10.3-13.7-13.2-25.2-8.4z" fill="#607d8b"/></svg>